<svg width="1200" height="360" viewBox="0 0 1200 360" fill="none" xmlns="http://www.w3.org/2000/svg">
  <defs>
    <linearGradient id="bg" x1="0" y1="0" x2="1200" y2="360" gradientUnits="userSpaceOnUse">
      <stop stop-color="#FF6B35"/>
      <stop offset="1" stop-color="#E55D2A"/>
    </linearGradient>
    <filter id="shadow" x="80" y="60" width="1040" height="240" filterUnits="userSpaceOnUse" color-interpolation-filters="sRGB">
      <feFlood flood-opacity="0" result="BackgroundImageFix"/>
      <feColorMatrix in="SourceAlpha" type="matrix" values="0 0 0 0 0 0 0 0 0 0 0 0 0 0 0 0 0 0 127 0" result="hardAlpha"/>
      <feOffset dy="10"/>
      <feGaussianBlur stdDeviation="12"/>
      <feComposite in2="hardAlpha" operator="out"/>
      <feColorMatrix type="matrix" values="0 0 0 0 0.70 0 0 0 0 0.26 0 0 0 0 0.12 0 0 0 0.35 0"/>
      <feBlend mode="normal" in2="BackgroundImageFix" result="effect1_dropShadow_1_1"/>
      <feBlend mode="normal" in="SourceGraphic" in2="effect1_dropShadow_1_1" result="shape"/>
    </filter>
  </defs>

  <g filter="url(#shadow)">
    <rect x="110" y="90" width="980" height="180" rx="36" fill="url(#bg)"/>
  </g>

  <circle cx="220" cy="180" r="48" fill="rgba(255,255,255,0.22)"/>
  <path d="M205 154C205 149.582 208.582 146 213 146H227C231.418 146 235 149.582 235 154V206C235 210.418 231.418 214 227 214H213C208.582 214 205 210.418 205 206V154ZM214 156V201H226V156H214ZM219 207C221.209 207 223 208.791 223 211C223 213.209 221.209 215 219 215C216.791 215 215 213.209 215 211C215 208.791 216.791 207 219 207Z" fill="#FFFFFF"/>

  <text x="300" y="165" fill="white" font-family="Segoe UI, Arial, sans-serif" font-size="42" font-weight="800">
    Open App / Install App
  </text>
  <text x="300" y="215" fill="rgba(255,255,255,0.90)" font-family="Segoe UI, Arial, sans-serif" font-size="28" font-weight="600">
    Auto route for Android and iPhone
  </text>
</svg>
