<svg width="1024" height="1024" viewBox="0 0 1024 1024" fill="none" xmlns="http://www.w3.org/2000/svg">
  <rect width="1024" height="1024" rx="120" fill="#FFFFFF"/>
  <rect x="42" y="42" width="940" height="940" rx="96" stroke="#111827" stroke-width="24"/>

  <!-- top-left finder -->
  <rect x="120" y="120" width="240" height="240" rx="26" fill="#111827"/>
  <rect x="164" y="164" width="152" height="152" rx="18" fill="#FFFFFF"/>
  <rect x="204" y="204" width="72" height="72" rx="10" fill="#111827"/>

  <!-- top-right finder -->
  <rect x="664" y="120" width="240" height="240" rx="26" fill="#111827"/>
  <rect x="708" y="164" width="152" height="152" rx="18" fill="#FFFFFF"/>
  <rect x="748" y="204" width="72" height="72" rx="10" fill="#111827"/>

  <!-- bottom-left finder -->
  <rect x="120" y="664" width="240" height="240" rx="26" fill="#111827"/>
  <rect x="164" y="708" width="152" height="152" rx="18" fill="#FFFFFF"/>
  <rect x="204" y="748" width="72" height="72" rx="10" fill="#111827"/>

  <!-- decorative modules -->
  <rect x="440" y="430" width="58" height="58" rx="10" fill="#111827"/>
  <rect x="516" y="430" width="58" height="58" rx="10" fill="#111827"/>
  <rect x="592" y="430" width="58" height="58" rx="10" fill="#111827"/>
  <rect x="440" y="506" width="58" height="58" rx="10" fill="#111827"/>
  <rect x="592" y="506" width="58" height="58" rx="10" fill="#111827"/>
  <rect x="440" y="582" width="58" height="58" rx="10" fill="#111827"/>
  <rect x="516" y="582" width="58" height="58" rx="10" fill="#111827"/>
  <rect x="592" y="582" width="58" height="58" rx="10" fill="#111827"/>

  <rect x="706" y="478" width="60" height="60" rx="10" fill="#111827"/>
  <rect x="782" y="478" width="60" height="60" rx="10" fill="#111827"/>
  <rect x="706" y="554" width="60" height="60" rx="10" fill="#111827"/>
  <rect x="630" y="630" width="60" height="60" rx="10" fill="#111827"/>
  <rect x="706" y="630" width="60" height="60" rx="10" fill="#111827"/>
  <rect x="782" y="630" width="60" height="60" rx="10" fill="#111827"/>
  <rect x="630" y="706" width="60" height="60" rx="10" fill="#111827"/>
  <rect x="782" y="706" width="60" height="60" rx="10" fill="#111827"/>

  <text x="512" y="970" text-anchor="middle" fill="#4B5563" font-family="Segoe UI, Noto Sans KR, Arial, sans-serif" font-size="38" font-weight="700">
    QR SCAN
  </text>
</svg>
